<svg id="illust" xmlns="http://www.w3.org/2000/svg" xmlns:xlink="http://www.w3.org/1999/xlink" viewBox="0 0 512 512"><defs><style>.cls-1{fill:#d32f2f;}.cls-2{fill:#2e7d32;}.cls-3{fill:#e53935;}.cls-4{fill:#fff;}.cls-5{fill:#ffca28;}.cls-6{fill:#ffa000;}.cls-7{fill:#bf6100;}</style><symbol id="新規シンボル-2" data-name="新規シンボル" viewBox="0 0 328.8 407.7"><path class="cls-1" d="M133.17,99a10,10,0,0,0-13.74-3.3L3.14,167c-4.69,2.87-4.06,5.77,1.4,6.44l36.54,4.47c5.46.67,8.38,5.44,6.5,10.61L34.71,223.76c-1.88,5.17-3.28,9.63-3.1,9.93s4.16-1.82,8.85-4.69l116.75-71.58a10,10,0,0,0,3.31-13.76Z"/><path class="cls-1" d="M133.17,99a10,10,0,0,0-13.74-3.3L3.14,167c-4.69,2.87-4.06,5.77,1.4,6.44l36.54,4.47c5.46.67,8.38,5.44,6.5,10.61L34.71,223.76c-1.88,5.17-3.28,9.63-3.1,9.93s4.16-1.82,8.85-4.69l116.75-71.58a10,10,0,0,0,3.31-13.76Z"/><path class="cls-1" d="M166.72,145a11.18,11.18,0,0,1-12.81,7.33L16.83,121.61a9,9,0,0,1-6.7-11.71L28.47,52.78a9,9,0,0,1,12.26-5.61l129.29,55a11.2,11.2,0,0,1,6.15,13.43Z"/><path class="cls-1" d="M281.22,188.47c-1.88-5.17,1-9.94,6.5-10.61l36.54-4.47c5.46-.67,6.09-3.57,1.4-6.44L209.38,95.66A10,10,0,0,0,195.63,99l-27.34,44.7a10,10,0,0,0,3.31,13.76L288.34,229c4.69,2.87,8.67,5,8.85,4.69s-1.22-4.76-3.1-9.93Z"/><path class="cls-1" d="M281.22,188.47c-1.88-5.17,1-9.94,6.5-10.61l36.54-4.47c5.46-.67,6.09-3.57,1.4-6.44L209.38,95.66A10,10,0,0,0,195.63,99l-27.34,44.7a10,10,0,0,0,3.31,13.76L288.34,229c4.69,2.87,8.67,5,8.85,4.69s-1.22-4.76-3.1-9.93Z"/><path class="cls-1" d="M162.09,145a11.18,11.18,0,0,0,12.81,7.33L312,121.61a9,9,0,0,0,6.7-11.71L300.33,52.78a9,9,0,0,0-12.26-5.61l-129.29,55a11.2,11.2,0,0,0-6.15,13.43Z"/><path class="cls-2" d="M54.37,59.27C69.47,67,97.08,119.68,90.22,127.65c6.86-8,75.16,36.94,88.71,58.34-13.55-21.4-8.36-104.93,6.74-108.5C170.57,81.06,143,28.41,149.82,9.11,143,28.41,92.42,21.4,84.17,0,92.42,21.4,69.47,67,54.37,59.27Z"/><path class="cls-2" d="M286.42,59.27c-15.11,7.76-42.71,60.41-35.85,68.38-6.86-8-75.16,36.94-88.71,58.34,13.55-21.4,8.36-104.93-6.74-108.5C170.22,81.06,197.82,28.41,191,9.11c6.86,19.3,57.4,12.28,65.65-9.11C248.37,21.4,271.31,67,286.42,59.27Z"/><ellipse class="cls-3" cx="170.89" cy="76.65" rx="22.44" ry="22.47"/><ellipse class="cls-4" cx="162.91" cy="70.66" rx="5.49" ry="5.49"/><ellipse class="cls-3" cx="150.94" cy="115.6" rx="22.44" ry="22.47"/><ellipse class="cls-4" cx="142.96" cy="109.61" rx="5.49" ry="5.49"/><ellipse class="cls-3" cx="194.83" cy="115.6" rx="22.44" ry="22.47"/><ellipse class="cls-4" cx="186.85" cy="109.61" rx="5.49" ry="5.49"/><path class="cls-5" d="M72.65,198.4h0v85.81c0,15.36-15.49,29.71-32.92,50.58,104.67,0,130.67,1,130.67,1V136.08C116.65,136.08,73,163.94,72.65,198.4Z"/><path class="cls-6" d="M267.16,283.82V198h0c-.38-34.46-44-62.33-97.75-62.33V335.41s26-1,130.67-1C282.65,313.53,267.16,299.18,267.16,283.82Z"/><ellipse class="cls-6" cx="169.4" cy="356.27" rx="144.64" ry="51.43"/><ellipse class="cls-7" cx="168.9" cy="355.27" rx="130.17" ry="43.44"/><ellipse class="cls-5" cx="169.9" cy="341.29" rx="30.42" ry="30.46"/><ellipse class="cls-4" cx="156.93" cy="348.28" rx="7.48" ry="7.49"/><path class="cls-4" d="M88.4,224.61a5,5,0,0,1-5-5C83.4,191,95.16,174.88,105,166.4a62.75,62.75,0,0,1,40.38-14.79,5,5,0,1,1,0,10c-19.31,0-52,12.22-52,58A5,5,0,0,1,88.4,224.61Z"/></symbol></defs><title>christmasbell</title><use id="新規シンボル-4" data-name="新規シンボル" width="328.8" height="407.7" transform="translate(91.6 52.15)" xlink:href="#新規シンボル-2"/></svg>